<?xml version="1.0" encoding="UTF-8"?>
<svg width="367px" height="118px" viewBox="0 0 367 118" version="1.1" xmlns="http://www.w3.org/2000/svg" xmlns:xlink="http://www.w3.org/1999/xlink">
    <!-- Generator: Sketch 52.1 (67048) - http://www.bohemiancoding.com/sketch -->
    <title>Header</title>
    <desc>Created with Sketch.</desc>
    <defs>
        <linearGradient x1="50%" y1="0%" x2="50%" y2="100%" id="linearGradient-1">
            <stop stop-color="#7A3A8E" offset="0%"></stop>
            <stop stop-color="#733D90" offset="34.0934117%"></stop>
            <stop stop-color="#713E90" offset="52.91927%"></stop>
            <stop stop-color="#624693" offset="65.5156202%"></stop>
            <stop stop-color="#5A4995" offset="100%"></stop>
        </linearGradient>
    </defs>
    <g id="BIT-LOGIN-CLI" stroke="none" stroke-width="1" fill="none" fill-rule="evenodd">
        <g id="Bit-login-CLI--Successful-1920px-" transform="translate(-768.000000, -117.000000)">
            <g id="Header" transform="translate(767.000000, 110.000000)">
                <g id="Confetti" fill="#D8D8D8" fill-opacity="0.55" fill-rule="nonzero">
                    <circle id="Oval-5" transform="translate(255.291132, 70.291132) rotate(-57.000000) translate(-255.291132, -70.291132) " cx="255.291132" cy="70.2911322" r="4.5478844"></circle>
                    <circle id="Oval" opacity="0.579966518" transform="translate(345.291132, 24.291132) rotate(-57.000000) translate(-345.291132, -24.291132) " cx="345.291132" cy="24.2911322" r="4.5478844"></circle>
                    <circle id="Oval" opacity="0.579966518" transform="translate(361.291132, 120.291132) rotate(-57.000000) translate(-361.291132, -120.291132) " cx="361.291132" cy="120.291132" r="4.5478844"></circle>
                    <circle id="Oval" opacity="0.579966518" transform="translate(76.291132, 14.291132) rotate(-57.000000) translate(-76.291132, -14.291132) " cx="76.2911322" cy="14.2911322" r="4.5478844"></circle>
                    <circle id="Oval" opacity="0.579966518" transform="translate(11.291132, 120.291132) rotate(-57.000000) translate(-11.291132, -120.291132) " cx="11.2911322" cy="120.291132" r="4.5478844"></circle>
                    <circle id="Oval" transform="translate(268.224893, 98.224893) rotate(-57.000000) translate(-268.224893, -98.224893) " cx="268.224893" cy="98.2248932" r="4.5"></circle>
                    <path d="M257.625762,1.31034548 C259.778732,0.0167103403 262.572758,0.713339227 263.866393,2.86630965 L274.797283,21.058366 C276.090918,23.2113365 275.39429,26.0053623 273.241319,27.2989975 C271.088349,28.5926326 268.294323,27.8960037 267.000688,25.7430333 L256.069797,7.5509769 C254.776162,5.39800648 255.472791,2.60398062 257.625762,1.31034548 Z" id="Rectangle" transform="translate(265.433540, 14.304671) rotate(108.000000) translate(-265.433540, -14.304671) "></path>
                    <rect id="Rectangle" transform="translate(299.863915, 56.863915) rotate(-57.000000) translate(-299.863915, -56.863915) " x="294.17906" y="51.1790597" width="11.369711" height="11.369711"></rect>
                    <circle id="Oval" transform="translate(6.182527, 79.182527) rotate(-119.000000) translate(-6.182527, -79.182527) " cx="6.18252743" cy="79.1825274" r="4.5478844"></circle>
                    <circle id="Oval" transform="translate(362.759975, 79.182527) rotate(-119.000000) translate(-362.759975, -79.182527) " cx="362.759975" cy="79.1825274" r="4.5478844"></circle>
                    <circle id="Oval" opacity="0.579966518" transform="translate(129.182527, 82.182527) rotate(-119.000000) translate(-129.182527, -82.182527) " cx="129.182527" cy="82.1825274" r="4.5478844"></circle>
                    <circle id="Oval" transform="translate(83.117432, 87.117432) rotate(-119.000000) translate(-83.117432, -87.117432) " cx="83.117432" cy="87.117432" r="4.5"></circle>
                    <path d="M40.8598159,47.3791601 C43.0127863,46.0855249 45.8068121,46.7821538 47.1004473,48.9351242 L58.0313375,67.1271806 C59.3249727,69.2801511 58.6283438,72.0741769 56.4753734,73.3678121 C54.3224029,74.6614472 51.5283771,73.9648183 50.2347419,71.8118479 L39.3038517,53.6197915 C38.0102165,51.4668211 38.7068454,48.6727952 40.8598159,47.3791601 Z" id="Rectangle" transform="translate(48.667595, 60.373486) rotate(-119.000000) translate(-48.667595, -60.373486) "></path>
                    <path d="M312.980945,75.3791601 C315.133916,74.0855249 317.927941,74.7821538 319.221577,76.9351242 L330.152467,95.1271806 C331.446102,97.2801511 330.749473,100.074177 328.596503,101.367812 C326.443532,102.661447 323.649506,101.964818 322.355871,99.8118479 L311.424981,81.6197915 C310.131346,79.4668211 310.827975,76.6727952 312.980945,75.3791601 Z" id="Rectangle" transform="translate(320.788724, 88.373486) rotate(-119.000000) translate(-320.788724, -88.373486) "></path>
                    <rect id="Rectangle" transform="translate(120.728159, 37.728159) rotate(-119.000000) translate(-120.728159, -37.728159) " x="115.043304" y="32.0433038" width="11.369711" height="11.369711"></rect>
                </g>
                <g id="logo/bit" transform="translate(148.000000, 12.000000)">
                    <g id="Group-30" transform="translate(0.955811, 0.000000)">
                        <circle id="Oval-2" fill="url(#linearGradient-1)" fill-rule="nonzero" cx="36.5" cy="36.4306519" r="36.30238"></circle>
                        <path d="M33.1303662,39.1527875 C33.1303662,43.0113486 30.8310866,45.4956276 26.7082405,45.4956276 C25.2282444,45.4956276 23.8539624,45.2049141 22.7968224,44.5970586 C21.5811114,43.9099176 21.5811114,43.0377771 21.5811114,42.139208 L21.5811114,28.7928152 C21.5811114,27.8413892 22.1625384,27.3656762 23.3518209,27.3656762 C24.5411034,27.3656762 25.1225304,27.8413892 25.1225304,28.7928152 L25.1225304,33.8670873 C25.783243,33.4178028 26.6553835,33.2063748 27.6596665,33.2063748 C30.8839436,33.2063748 33.1303662,35.3470834 33.1303662,39.1527875 Z M25.1225304,42.244922 C25.571815,42.5092071 26.1268135,42.6413496 26.734669,42.6413496 C28.4525215,42.6413496 29.5096616,41.4784955 29.5096616,39.390644 C29.5096616,37.2763639 28.426093,36.0606529 26.787526,36.0606529 C26.153242,36.0606529 25.571815,36.2456524 25.1225304,36.5892229 L25.1225304,42.244922 Z M39.7507056,29.7178127 C39.7507056,30.9335237 38.8785651,31.7792358 37.662854,31.7792358 C36.447143,31.7792358 35.5750025,30.9335237 35.5750025,29.7178127 C35.5750025,28.5021017 36.447143,27.6828182 37.662854,27.6828182 C38.8785651,27.6828182 39.7507056,28.5021017 39.7507056,29.7178127 Z M39.4335636,34.6335138 L39.4335636,44.0156316 C39.4335636,44.9670576 38.8521366,45.4427706 37.662854,45.4427706 C36.4735715,45.4427706 35.8921445,44.9670576 35.8921445,44.0156316 L35.8921445,34.6335138 C35.8921445,33.6820878 36.4735715,33.2063748 37.662854,33.2063748 C38.8521366,33.2063748 39.4335636,33.6820878 39.4335636,34.6335138 Z M50.1503206,42.2713505 C51.1281751,42.2713505 51.4188886,43.3020621 51.4188886,43.8834891 C51.4188886,44.2534881 51.2867461,44.6234871 50.7846046,44.9142006 C50.2031776,45.2577711 49.1988946,45.4956276 48.1681831,45.4956276 C46.265331,45.4956276 45.1289055,44.7292011 44.5474785,43.6720611 C44.0189085,42.7206351 43.9660515,41.5842095 43.9660515,40.3684985 L43.9660515,36.4042234 L43.0410539,36.4042234 C42.0896279,36.4042234 41.6139149,35.9285104 41.6139149,34.9242274 C41.6139149,33.9199443 42.0896279,33.4442313 43.0410539,33.4442313 L43.9660515,33.4442313 L43.9660515,31.1185233 C43.9660515,30.1670972 44.5474785,29.6913842 45.736761,29.6913842 C46.9260435,29.6913842 47.5074705,30.1670972 47.5074705,31.1185233 L47.5074705,33.4442313 L49.7274646,33.4442313 C50.6788906,33.4442313 51.1546036,33.9199443 51.1546036,34.9242274 C51.1546036,35.9285104 50.6788906,36.4042234 49.7274646,36.4042234 L47.5074705,36.4042234 L47.5074705,40.3684985 C47.5074705,40.8442115 47.5074705,41.5313525 47.7453271,41.980637 C47.9303266,42.350636 48.2738971,42.5092071 48.7231816,42.5092071 C49.0138951,42.5092071 49.3046086,42.4299216 49.5424651,42.3770646 C49.7538931,42.3242075 49.9388926,42.2713505 50.1503206,42.2713505 Z" id="bit" fill="#FFFFFF"></path>
                    </g>
                </g>
            </g>
        </g>
    </g>
</svg>