<svg id="Layer_1" xmlns="http://www.w3.org/2000/svg" viewBox="0 0 160 160">
  <g id="jetpack">
    <path fill="#666262" d="M32.98 47.47c4.25 4.54 84.21 14.04 96.81 1.12s5.95 42.72-3.94 37.61-84.87-3.95-96.98 2.2c-6.56-27.32 4.11-40.93 4.11-40.93z"/>
    <g>
      <g>
        <path fill="#E62E2E" d="M124.52 93.47c-12.72 15.59-12.44 34.83 6.38 54.83 24.89-25.81 12.47-45.26 5.58-54.91l-6.59-6.77-5.37 6.85z"/>
        <path fill="#F2B030" d="M133.01 91.63c10.72 14.53 10.41 25.76-1.43 41.48-19.2-18.98-9-34.75-2.99-41.78 2.99-4.89 4.42.3 4.42.3z"/>
        <path fill="#FAE500" d="M129.21 89.65c5.83 6.56 8.92 20.98 1.62 30.17-10.7-11.18-3.8-23.84-.13-29.59.97.97-1.49-.58-1.49-.58z"/>
        <path opacity=".3" fill="#241D1D" d="M140.77 100.02c-2.19-1.34-4.94-2.14-9.5-2.65-3.97-.44-8.27 1.48-11.43 3.12 1.27-2.41 2.84-4.75 4.69-7.02l2.46-3.15c1.75-.72 3.63-1.09 5.56-.88.03 0 .07.01.1.02l3.83 3.93c1.32 1.86 2.86 4.07 4.29 6.63z"/>
      </g>
      <g>
        <path id="XMLID_153_" fill="#D9D7D7" d="M124.52 93.47C111.9 67.73 116.28 23.95 134 .49c15.59 22.14 17.69 66.11 2.47 92.9-2.25-1.14-9.51-1.89-11.95.08z"/>
        <path fill="#0AF" d="M143.22 20.98c-.35-1.26-.72-2.5-1.12-3.72-5.82-1.42-12.4-1.35-17.19-.3-.48 1.2-.95 2.41-1.38 3.64 5.2-1.4 13.08-1.54 19.69.38zm2.61 12.84c-.16-1.15-.33-2.28-.52-3.41-6.82-2.03-19.61-2.74-24.68-.16-.21.86-.41 1.73-.61 2.61 5.52-2.27 18.58-2.06 25.81.96z"/>
        <path fill="#E62E5C" d="M145.3 30.41c-.55-3.23-1.25-6.39-2.08-9.43-6.61-1.92-14.49-1.78-19.69-.38-1.11 3.12-2.08 6.35-2.9 9.65 5.06-2.58 17.86-1.86 24.67.16z"/>
        <path fill="#0AF" d="M145.26 67.76c.18-1.04.35-2.09.5-3.15-5.47-3.95-21.35-5.5-28.33-1.72.05 1.07.12 2.13.2 3.19 7.01-3.46 21.96-2.03 27.63 1.68zm-3.11 12.57c.25-.78.49-1.56.72-2.35-5.96-2.68-17.08-3.65-23.84-1.47.16.82.33 1.62.51 2.42 6.58-1.86 16.72-1 22.61 1.4z"/>
        <path fill="#E62E5C" d="M142.88 77.98c.97-3.31 1.77-6.72 2.38-10.22-5.67-3.71-20.62-5.14-27.63-1.68.28 3.56.75 7.05 1.4 10.42 6.77-2.17 17.89-1.2 23.85 1.48z"/>
        <path opacity=".2" fill="#241D1D" d="M132.23 92.38c-2.87-.31-6.2-.12-7.7 1.09-12.14-24.76-8.55-66.23 7.52-90.23l.13.14c-5.65 17.18-11.78 57.43.05 89z"/>
      </g>
    </g>
    <g>
      <g>
        <path fill="#E62E2E" d="M36.43 102.22c13.16 16.53 8.95 28.11-2.97 55.24-29.45-24.83-18.4-46-9.58-55.47 5.78-3.24 7.82-5.89 7.82-5.89l4.73 6.12z"/>
        <path fill="#F2B030" d="M33.26 100.88c9.87 12.4 7.85 22.87-1.09 43.22-22.08-18.62-11.19-36.15-4.58-43.26s5.67.04 5.67.04z"/>
        <path fill="#FAE500" d="M30.41 100.5c5.82 7.14 5.93 20.64.62 29.69-10.73-12.2-4.71-23.82-.62-29.69z"/>
        <path opacity=".3" fill="#241D1D" d="M39.71 106.8c-2.25-1.1-5.03-1.66-9.48-1.8-4.27-.14-8.7 2.44-11.77 4.38 1.65-2.93 3.59-5.42 5.43-7.4 3.74-2.09 5.91-3.94 6.98-4.99h.03c.58.02 1.15.11 1.72.28l3.82 4.95c1.25 1.57 2.34 3.09 3.27 4.58z"/>
      </g>
      <g>
        <path id="XMLID_513_" fill="#D9D7D7" d="M36.43 102.22C50 75.35 39.82 22.26 27.62 4.48c-17.77 20.43-19.39 69.19-3.74 97.5 2.39-1.16 10.02-1.86 12.55.24z"/>
        <path fill="#0AF" d="M39.97 39.21c-.27-1.41-.57-2.79-.87-4.16-6.43-1.84-18.29-1.04-24.45.93-.24 1.45-.46 2.91-.64 4.38 6.79-3.05 20.26-2.95 25.96-1.15zM36.6 25.29c-.38-1.27-.76-2.51-1.16-3.72-5.1-.91-11.65-.85-17.4.64-.43 1.28-.83 2.6-1.21 3.94 6.42-1.99 14.14-2.04 19.77-.86z"/>
        <path fill="#E62E5C" d="M39.1 35.05c-.75-3.39-1.59-6.66-2.51-9.76-5.62-1.18-13.35-1.14-19.77.86-.88 3.15-1.61 6.44-2.17 9.83 6.17-1.97 18.02-2.77 24.45-.93z"/>
        <path fill="#0AF" d="M41.33 86.86c.16-.86.31-1.72.44-2.59-7.13-2.12-18.35-1.2-24.44 1.46.24.83.48 1.66.74 2.48 6.06-2.39 16.37-3.2 23.26-1.35zm1.46-13.85c.04-1.15.07-2.31.08-3.48-7.9-3.23-23.18-1.69-28.51 2.22.16 1.1.33 2.19.52 3.28 5.62-3.67 20.15-5.07 27.91-2.02z"/>
        <path fill="#E62E5C" d="M41.77 84.27c.55-3.62.88-7.4 1.02-11.26-7.76-3.05-22.3-1.65-27.91 2.02.64 3.66 1.46 7.24 2.45 10.7 6.09-2.66 17.31-3.58 24.44-1.46z"/>
        <path opacity=".2" fill="#241D1D" d="M36.44 102.22c-1.53-1.27-4.91-1.51-7.88-1.26C39.73 72.34 37 25.33 27.63 4.48c12.19 17.78 22.38 70.87 8.81 97.74z"/>
      </g>
    </g>
  </g>
  <g id="bit_1_">
    <g fill="#241D1D">
      <path d="M130.49 43.25c-1.78 8.92-17.71 23.83-17.87 23.98-.77.72-1.75 1.07-2.72 1.07-1.07 0-2.14-.43-2.93-1.27-1.51-1.62-1.42-4.15.2-5.66 6.42-5.97 14.03-15.05 15.34-19.17-.44-2.98-2.38-9.59-4.28-15.34-.51.13-1.05.19-1.59.19-1.37 0-2.8-.4-4.19-1.19-1.91-1.1-3.68-2.91-4.98-5.11-3.19-5.4-2.62-11.22 1.3-13.54 2.18-1.29 4.91-1.17 7.5.3 1.85 1.06 3.56 2.79 4.84 4.89.05.07.1.15.14.22.14.23.3.51.46.84l.23.47.23.52c.03.05.05.09.06.14 2.87 6.48 7.92 22.82 8.32 27.53.04.38.02.76-.06 1.13zm-84.12 61.33c-1.06 0-2.12-.42-2.91-1.25-4.67-4.94-10.71-12.56-13.66-19.13-.29-.65-.41-1.37-.33-2.08.63-5.59 5.92-12.72 16.18-21.81 1.65-1.47 4.18-1.31 5.65.34 1.46 1.65 1.31 4.18-.34 5.65-9.99 8.85-12.63 13.69-13.32 15.78 2.74 5.44 7.87 11.79 11.64 15.76 1.52 1.6 1.45 4.14-.16 5.66-.77.72-1.76 1.08-2.75 1.08zm33.83 40.31c2.76 5.91 1.56 11.92-2.81 13.97-.92.44-1.91.65-2.93.65-1.6 0-3.26-.53-4.82-1.57-1.96-1.32-3.68-3.4-4.84-5.86-1.01-2.16-1.5-4.32-1.5-6.31 0-3.48 1.5-6.4 4.29-7.71.27-.13.56-.24.84-.33-3.32-8.15-6.76-17.55-7.32-22.38-.02-.16-.03-.32-.03-.48 0-1.63.64-4.33 1.86-9.37.83-3.39 1.76-7.24 2.31-10.34.39-2.18 2.46-3.63 4.64-3.25 2.17.39 3.63 2.46 3.24 4.64-.59 3.35-1.56 7.33-2.41 10.84-.64 2.63-1.5 6.17-1.63 7.34.77 5.2 6.16 19.21 11.07 30.07.01.01.01.03.02.04.01.02.02.03.02.05z"/>
      <path d="M97.61 140.72c-1.06 2.5-2.69 4.65-4.6 6.05-1.61 1.17-3.36 1.78-5.05 1.78-.91 0-1.81-.18-2.66-.54-4.46-1.88-5.91-7.86-3.36-13.9 1.52-3.61 3.81-5.59 6.2-6.33 1.64-4.43 2.32-8.13 2.4-12.33-.59-5.15-1.55-12.01-3.75-19.79-.61-2.12.63-4.33 2.75-4.94 2.13-.6 4.34.64 4.94 2.76 2.4 8.47 3.42 15.84 4.04 21.33.02.16.03.33.02.5-.07 4.93-.81 9.3-2.57 14.3 2.46 2.26 3.72 6.16 1.64 11.11z"/>
    </g>
    <path id="XMLID_538_" fill="#0AF" d="M47.68 100.52c1.33 3.06 59.29.07 62.18-1.75 2.51-6.83 4.67-57.22 4.23-65.25-17.2-7.74-55.26-4.22-66.5 4.46-1.84 1.73-1.25 59.48.09 62.54z"/>
    <g>
      <path fill="#6D67CC" d="M113.78 51.47c-4.66 8.33-13.39 20.25-22.3 31.34-8.46.5-17.19.91-24.76 1.23-8.58-8.27-16.35-16.82-20.28-23.47-.02 4.44 0 9.14.05 13.69 2.77 3.37 5.91 6.81 9.24 10.22-4.16.15-7.34.26-9.04.31.08 2.97.18 5.68.28 8 2.7-.08 8.85-.29 16.65-.6 3.54 3.31 7.12 6.5 10.55 9.43 4.13-.13 8.37-.32 12.43-.54 2.87-3.29 5.89-6.84 8.88-10.49 5.64-.36 11.07-.76 15.9-1.19.26-2.41.5-5.16.74-8.1-3.02.28-6.35.56-9.85.81 3.52-4.52 7.3-9.54 10.75-14.51.31-5.52.57-11.1.76-16.13zM80.2 96.28c-1.73-1.48-3.48-3.01-5.24-4.59 3.12-.14 6.34-.3 9.59-.47-1.48 1.75-2.93 3.44-4.35 5.06z"/>
      <g fill="#353366">
        <path d="M101.84 84.14c-1.27.09-2.59.18-3.94.27.78-.98 1.56-1.97 2.33-2.95.68-.87.53-2.13-.34-2.81-.87-.68-2.13-.53-2.81.34-1.5 1.91-3.03 3.83-4.58 5.75-2.05.12-4.14.24-6.33.36-1.1.06-1.95 1-1.89 2.11.06 1.07.94 1.89 2 1.89h.11c.91-.05 1.78-.1 2.66-.15-.82.99-1.65 1.98-2.47 2.96-.71.84-.61 2.11.24 2.82.38.32.83.47 1.29.47.57 0 1.13-.24 1.53-.71 1.64-1.94 3.26-3.9 4.86-5.86 2.69-.17 5.24-.34 7.64-.51 1.1-.08 1.93-1.04 1.85-2.14-.09-1.09-1.05-1.91-2.15-1.84zm-29.82 1.68c-2.09.09-4.12.18-6.07.26-2.25-2.15-4.38-4.25-6.37-6.3-.77-.79-2.04-.81-2.83-.04s-.81 2.04-.04 2.83c1.19 1.23 2.44 2.48 3.73 3.74-1.5.06-2.92.11-4.25.16-1.1.04-1.97.97-1.92 2.07.04 1.08.93 1.93 2 1.93h.08c2.41-.09 5.15-.2 8.09-.32 1.86 1.76 3.78 3.53 5.78 5.33.38.34.86.51 1.34.51.55 0 1.09-.22 1.49-.66.74-.82.67-2.09-.15-2.82-.97-.87-1.91-1.73-2.84-2.59.71-.03 1.43-.06 2.16-.1 1.1-.05 1.96-.98 1.91-2.09-.07-1.11-1.03-1.97-2.11-1.91z"/>
      </g>
    </g>
    <g>
      <ellipse transform="rotate(-11.593 91.397 50.096)" fill="#241D1D" cx="91.39" cy="50.1" rx="5.07" ry="5.21"/>
      <ellipse transform="rotate(-29.067 67.587 50.792)" fill="#241D1D" cx="67.58" cy="50.79" rx="5.72" ry="4.88"/>
      <path fill="#0AF" d="M58.84 67.04c2.76-5.33 6.35-21.91 18.73-12.13L58.84 67.04zm23.94-11.5c4.51-4.32 10.11-6.89 15.9 1.63l-15.9-1.63z"/>
    </g>
    <g>
      <path fill="#241D1D" d="M86.56 64.2c1.12 3.23.4 6.65-1.61 9.09-1.04 1.27-2.43 2.27-4.09 2.85-3.65 1.27-7.55.11-9.99-2.63-.81-.9-1.46-1.98-1.89-3.21-1.7-4.9.85-10.24 5.7-11.93 4.87-1.69 10.18.93 11.88 5.83z"/>
      <path fill="#E62E5C" d="M84.6 71.93c.16.45.27.91.36 1.36-1.04 1.27-2.43 2.27-4.09 2.85-3.65 1.27-7.55.11-9.99-2.63.01-3.11 1.71-5.88 4.48-6.84 3.66-1.27 7.79 1.08 9.24 5.26z"/>
    </g>
    <path fill="#241D1D" d="M51.34 106.79c-2.11 0-4.38-.73-6.41-2.2-1.9-1.38-3.32-3.24-4.02-5.26-.86-2.48-.55-5.01.85-6.93s3.74-3.01 6.33-2.95c2.13.04 4.35.82 6.24 2.19 4.41 3.21 5.81 8.56 3.17 12.19-1.42 1.96-3.68 2.96-6.16 2.96zm-1.73-8.7c.01.01.02.01.03.02s.02.01.03.02c-.01-.01-.02-.01-.03-.02-.01 0-.02-.01-.03-.02z"/>
  </g>
</svg>
