<svg xmlns="http://www.w3.org/2000/svg" viewBox="0 0 300 300">
  <g transform="translate(58 2)">
    <ellipse transform="rotate(-4.542 86.938 267.156)" opacity=".1" fill="#241D1D" cx="86.95" cy="267.19" rx="74.78" ry="28.12"/>
    <path fill="#241D1D" d="M42.87 252.88c0-.02.01-.03.04-.04 2.97-3.72 13.39-18.78 21.88-35.74 3.16-10.17 2.72-19.76 2.42-26.15-.16-3.61 16.57-2.45 16.65-.77.34 7.25.91 19.37-3.41 32.63-.12.39-.28.77-.46 1.14-4.48 9.03-10.65 19.89-16.16 28.37 7.87 3.57 12.97 7.2 13.65 13.07.62 5.29-.3 13.23-6.08 16.69-1.49.88-9.89 1.02-11.2.9-5.18-.47-17.49-5.4-20.57-8.99-4.89-5.7-2.93-13.72 3.24-21.11zM101.47 269.77c-.98-2.5.22-9.78 1.66-13.77 2.21-6.11 7.72-25.21 9.22-42.89-.05-9.92-1.36-25.59-2.07-34.06-.23-2.65 16.39-3.89 16.6-1.39.74 8.8 2.12 25.18 2.14 35.76 0 .23-.01.46-.03.69-.93 11.45-3.41 23.5-5.84 32.99 9.26 1.67 17.82 8.1 15.91 16.2-1.82 7.7-2.07 12.66-9.59 15.13-6.24 2.05-26.47-4.79-28-8.66zM142.54 160.27l-.13-.07c-4.06-2.16 3.77-16.87 7.83-14.71l.21.11c4.37 2.35 12.91 5.55 20.95.47 3.89-2.46 9.03-1.3 11.49 2.59s1.3 9.03-2.59 11.49c-5.58 3.53-11.83 5.29-18.31 5.29-6.41 0-13.03-1.73-19.45-5.17z"/>
    <path fill="#E5A72E" d="M173.2 78.5c1.05 7.07-15.16 105.07-19.19 108.83s-73.18 19.68-77.74 18.26c-4.56-1.42-48.15-17.82-52.22-21.6C19.98 180.21 9.9 79.62 12.92 76.8s45.04-19.35 64.71-20.1c11.64-.44 94.52 14.73 95.57 21.8z"/>
    <path opacity=".1" d="M76.27 205.59c-4.56-1.42-48.15-17.82-52.22-21.6C19.98 180.21 9.9 79.62 12.92 76.8s45.04-19.35 64.71-20.1c-7.61 20.75-1.29 142.71-1.36 148.89z"/>
    <path opacity=".1" d="M172.34 87.66c-19.27 27.69-88.12-.3-98.4 13.05-8.64-16.34-45.51 4.2-59.43 15.6-1.43-15.89-2.33-30-2.12-36.21v-.03c.13-1.54.22-2.48.26-2.58.05-.12.56-.65 1.37-1.42 3.74-3.58 13.87-12.59 13.87-12.59l26.42-2.29 22.57-1.96 39.66-3.44s57.02 21.49 56.67 22.73c0 0 .03 7-.87 9.14z"/>
    <path fill="#241D1D" d="M171.57 160.27c-3.95-2.35-5.25-7.47-2.89-11.42 1.66-2.79 4.04-13.26 3.85-26.86-.2-14.73-3.29-21.67-4.69-22.69-2.58-1.38-7.12-1.81-8.37-1.51-4.4 1.33-9.05-1.16-10.39-5.56-1.33-4.4 1.16-9.06 5.56-10.39 5.7-1.73 14.95-.51 21.08 2.77 4.99 2.67 8.65 8.08 10.87 16.08 4.66 16.8 2.82 45.93-3.58 56.68-1.56 2.62-4.33 4.07-7.17 4.07-1.45 0-2.92-.38-4.27-1.17z"/>
    <g transform="translate(5 101)">
      <path fill="#241D1D" d="M90.62 5.81c.24-3.68 1.99-6.79 4.59-8.83.91-.52 1.81-1.02 2.69-1.49.04-.02.07-.04.1-.05 17.77-9.53 31.22-10.66 36-9.95 11.77 1.74 20.51 12.15 19.82 24.12-.66 11.22-9.17 20.4-20.24 21.81-.73.09-1.47.16-2.21.18-3.26.1-6.48-.5-9.43-1.73l-.02.07-23.64-10.1c-6.97-3.07-8.03-8.36-7.66-14.03z"/>
      <path fill="#241D1D" d="M171.38 27.36c-4.27.05-21.88-4.56-25.05-7.88-3.99-4.17-17.22-28.81-8.79-29.89 1.35-.18 32.73-3.58 36.26-3.17 9.01 1.05 15.5 10.83 14.88 21.56-.58 10.08-7.14 18.18-15.59 19.26-.56.08-1.14.12-1.71.12z"/>
      <path fill="#0AF" d="M173.76-8.03c6.46.98 11 7.96 10.56 15.65s-5.76 13.98-12.27 14.05c-7.01.08-12.69-6.98-12.18-15.76.51-8.78 6.95-14.99 13.89-13.94zM133.18-8.53c8.88 1.16 15.13 9.1 14.63 17.82s-7.64 15.99-16.6 16.27c-9.79.3-17.93-7.73-17.34-17.96.59-10.23 9.62-17.41 19.31-16.13z"/>
      <ellipse transform="rotate(-4.157 132.95 6.828)" fill="#241D1D" cx="132.97" cy="6.83" rx="7.78" ry="7.78"/>
      <ellipse transform="rotate(-4.157 171.965 5.44)" fill="#241D1D" cx="171.99" cy="5.44" rx="6.47" ry="6.47"/>
    </g>
    <path fill="#241D1D" d="M44.99 122.09c4.36-1.01 8.71 1.59 9.91 5.85 1.43 2.63 9.12 8.72 16.77 13.3 1.83-4.99 3.6-11.82 5.11-17.69 2.4-9.28 4.73-18.29 7.99-25.44.08-.19.18-.39.27-.58.04-.09.08-.18.13-.26 2.63-5.55 5.87-9.9 10.21-12.28 4.84-2.65 13.05-5.73 18.3-6.84 4.5-.96 8.92 1.9 9.88 6.4s-1.91 8.92-6.41 9.88c-3.73.81-10.29 3.26-13.77 5.17-.05.04-1.21.73-2.99 4.41-2.22 9.93 2.25 12.22 7.44 14.87 1.03.54 2.02 1.05 2.94 1.64 3.86 2.52 4.94 7.69 2.42 11.54-1.6 2.45-4.26 3.77-6.98 3.77-1.56 0-3.14-.43-4.55-1.35-.22-.14-.91-.49-1.41-.75-1.76-.89-4.68-2.38-7.63-4.83-3.16 12.24-5.98 22.76-10.96 28.88-1.63 2-4.02 3.08-6.48 3.08-1.15 0-2.31-.24-3.41-.73-4.86-2.19-30.18-15.85-33.01-28.03-1.04-4.47 1.75-8.95 6.23-10.01z"/>
    <g transform="rotate(7 3.726 105.55)">
      <ellipse transform="rotate(169.052 61.137 -3.3)" fill="#CCA966" cx="61.14" cy="-3.3" rx="6.67" ry="4.34"/>
      <path fill="#B39559" d="M50.21 54.46c-1.14-3.62-30.46-24.78 11.3-58.57 50.59 9.88 43.73 32.42 44.71 40.65L50.21 54.46z"/>
      <path fill="#997F4D" d="M50.22 54.46c-1.14-3.62-12.52-28.59 11.3-58.57C17.68 12.07 4.57 56.59 7.35 73.18l42.87-18.72z"/>
      <path fill="#CCA966" d="M106.23 36.54c-.97-8.23-12.99-31.73-44.71-40.65 55.39-2.89 76.44 21.18 89.54 40.06l-44.83.59z"/>
      <path fill="#D9B46C" d="M70.91 34.43c62-15.55 111.9 9.09 120.89 21.16-93.33-8.94-162.28 12.8-205.09 52.13 4.39-15.69 22.82-57.88 84.2-73.29z"/>
      <path fill="#805519" d="M1.25 95.82c13.69-13.8 38.33-43.78 56.29-50.39 9.35-2.94 46.68-10.26 63.14-10.59 15.98 1.35 48.66 11.66 54.42 19.6 4.29 1.87-2.39 1.09-5.31.94-17.43-9.85-37.75-15.31-48.49-16.17-19.79.7-55.28 8.62-61.8 10.32-9.82 3.71-33.72 28.62-44.63 38.93-.01 0-18.12 12.04-18.24 12.06 1.22-1.26 2.77-2.87 4.62-4.7z"/>
      <path fill="#806540" d="M192.79 60.55c1.37.48.93-5.35-.99-4.96-93.33-8.94-162.28 12.8-205.09 52.12-1.42.57 1.58 5.13 2.11 3.79 72.37-60.09 173.02-54.78 203.97-50.95z"/>
      <path fill="#D9D7D7" d="M53.34 52.03l-1.78-4.95c-.24-.68.18-1.43.95-1.69L62 42.33c.77-.25 1.6.1 1.84.79l1.78 4.95c.24.68-.18 1.43-.95 1.69l-9.49 3.06c-.77.25-1.59-.11-1.84-.79z"/>
      <path fill="#805519" d="M62.96 47.75l-1.02-2.84c-.11-.31-.49-.47-.83-.36l-6.46 2.09c-.35.11-.54.45-.43.75l1.02 2.84c.11.31.49.47.83.36l6.46-2.09c.34-.11.53-.44.43-.75z"/>
      <path fill="#D9D7D7" d="M113.41 40.29l-.15-5.25c-.01-.73.62-1.35 1.43-1.4l9.95-.59c.81-.05 1.47.51 1.5 1.23l.15 5.25c.01.73-.62 1.35-1.43 1.4l-9.95.59c-.81.04-1.48-.51-1.5-1.23z"/>
      <path fill="#805519" d="M123.87 38.55l-.08-3.01c-.01-.32-.31-.57-.67-.55l-6.78.4c-.36.02-.65.31-.64.63l.08 3.01c.01.32.31.57.67.55l6.78-.4c.36-.02.65-.3.64-.63z"/>
    </g>
    <g>
      <path fill="#241D1D" d="M106.2 161.91c3.4-8.7 7.64-10.91 15.04-9.65 4.38.75 8.06 5.77 19.46 3.86 1.42-.24-5.13 4.79-3.93 5.53 0 0-17.77 2.45-30.57.26z"/>
      <path fill="#E62E2E" d="M106.21 161.87c3.59-18.57 22.18-11.85 19.89.45 0 0-9.52 1.73-19.89-.45z"/>
      <path fill="#241D1D" d="M109.52 167.12c-2.27-.37-3.81-2.51-3.44-4.78.37-2.27 2.51-3.81 4.78-3.44 6.39 1.04 31.37-2.8 33.29-3.49 1.52-.55 3.2.25 3.75 1.78s-.25 3.22-1.77 3.77c-1.96.71-22.54 6.39-33.02 6.39-1.38 0-2.6-.07-3.59-.23z"/>
    </g>
  </g>
</svg>
